# xmcd
#
# Track frame offsets:
#	150
#	14095
#	26875
#	46200
#	56927
#	69345
#	83785
#	97780
#	114312
#	126515
#	139040
#	150160
#	163407
#	178835
#	192135
#	206282
#
# Disc length: 2907 seconds
#
# Revision: 4
# Processed by: cddbd v1.5.2PL0 Copyright (c) Steve Scherf et al.
# Submitted via: audiograbber 1.83.01
#
DISCID=d90b5910
DTITLE=Various Artist - Goldene Schlagersouvenirs - CD 1
DYEAR=1988
DGENRE=Schlager
TTITLE0=Peter Kraus - Sugar Baby
TTITLE1=Gus Backus - Da sprach der alte Häuptling der Indianer
TTITLE2=Tony - Mädchen mit roten Haaren
TTITLE3=Udo Jürgens - 17 Jahr, blondes Haar
TTITLE4=Roberto Blanco - Heute so, morgen so
TTITLE5=Andy Fischer - Mr. Cannibal
TTITLE6=Original Bambis - Melancholie
TTITLE7=Roy Black - Ganz in Weiß
TTITLE8=Ted Herold - Moonlight
TTITLE9=Alf Gardener - Weine nicht, kleine Eva
TTITLE10=Chris Anders - Mit unserem Glück ist alles o.k.
TTITLE11=Vittorio - Eine Gitarre und 1000 Illusionen
TTITLE12=Rene Carol - Rote Rosen, rote Lippen, roter Wein
TTITLE13=Reter Rene Körner - Eine Tüte Luft aus Berlin
TTITLE14=Tom Astor - Glocken der Liebe
TTITLE15=Ann und Andy - Gold und Silber
EXTD=YEAR: 1988
EXTT0=
EXTT1=
EXTT2=
EXTT3=
EXTT4=
EXTT5=
EXTT6=
EXTT7=
EXTT8=
EXTT9=
EXTT10=
EXTT11=
EXTT12=
EXTT13=
EXTT14=
EXTT15=
PLAYORDER=
